<svg width="257" height="43" viewBox="0 0 257 43" fill="none" xmlns="http://www.w3.org/2000/svg">
<g filter="url(#filter0_dd_35_1051)">
<rect x="8" y="5" width="39.9568" height="25.7414" rx="4.6104" fill="white"/>
<path d="M27.7341 13.6755L25.8703 22.3875H23.6167L25.4807 13.6755H27.7341ZM37.2159 19.3008L38.4024 16.0292L39.0851 19.3008H37.2159ZM39.7304 22.3875H41.8149L39.9959 13.6755H38.0718C37.6394 13.6755 37.2746 13.927 37.1122 14.3147L33.7311 22.3875H36.0978L36.5676 21.0865H39.459L39.7304 22.3875ZM33.8486 19.5429C33.8582 17.2436 30.6688 17.117 30.6908 16.0899C30.6974 15.7769 30.9955 15.4449 31.6465 15.3597C31.97 15.3175 32.8592 15.2853 33.869 15.7499L34.2644 13.9024C33.722 13.7055 33.0241 13.5161 32.1561 13.5161C29.9287 13.5161 28.3608 14.7004 28.3476 16.3962C28.3335 17.6503 29.4668 18.3501 30.3208 18.767C31.1987 19.1941 31.4938 19.4677 31.4899 19.8496C31.4841 20.4344 30.7895 20.692 30.1415 20.7022C29.0083 20.7201 28.3506 20.3964 27.8264 20.1521L27.4181 22.061C27.9445 22.3028 28.9164 22.5129 29.9248 22.5237C32.292 22.5237 33.8409 21.354 33.8486 19.5429ZM24.5137 13.6755L20.8624 22.3875H18.4797L16.683 15.4347C16.5738 15.0065 16.4789 14.8499 16.1472 14.6693C15.606 14.3756 14.7112 14.0996 13.924 13.9286L13.9777 13.6755H17.8124C18.301 13.6755 18.7408 14.0009 18.8517 14.5636L19.8008 19.6053L22.1459 13.6755H24.5137Z" fill="#1434CB"/>
<rect x="7.90395" y="4.90395" width="40.1489" height="25.9335" rx="4.70645" stroke="#D6DCE5" stroke-width="0.1921"/>
</g>
<g filter="url(#filter1_dd_35_1051)">
<rect x="58.2429" y="5" width="39.9568" height="25.7414" rx="4.6104" fill="white"/>
<path d="M81.0915 12.5845H75.2085V23.1565H81.0915V12.5845Z" fill="#FF5F00"/>
<path d="M75.5821 17.8705C75.5811 16.8523 75.8118 15.8473 76.2568 14.9315C76.7017 14.0157 77.3491 13.2131 78.15 12.5845C77.1582 11.8048 75.967 11.32 74.7126 11.1854C73.4582 11.0507 72.1913 11.2717 71.0566 11.8231C69.9219 12.3745 68.9652 13.234 68.2959 14.3034C67.6265 15.3728 67.2716 16.6089 67.2716 17.8705C67.2716 19.1321 67.6265 20.3682 68.2959 21.4376C68.9652 22.507 69.9219 23.3665 71.0566 23.9178C72.1913 24.4692 73.4582 24.6902 74.7126 24.5556C75.967 24.4209 77.1582 23.9361 78.15 23.1565C77.3491 22.5279 76.7017 21.7253 76.2568 20.8095C75.8119 19.8937 75.5811 18.8886 75.5821 17.8705Z" fill="#EB001B"/>
<path d="M89.0281 17.8705C89.0282 19.132 88.6733 20.3682 88.004 21.4375C87.3347 22.5069 86.378 23.3664 85.2434 23.9178C84.1087 24.4692 82.8417 24.6902 81.5874 24.5556C80.333 24.4209 79.1419 23.9361 78.15 23.1565C78.9503 22.5272 79.5972 21.7245 80.042 20.8089C80.4869 19.8932 80.718 18.8885 80.718 17.8705C80.718 16.8525 80.4869 15.8478 80.042 14.9321C79.5972 14.0164 78.9503 13.2137 78.15 12.5845C79.1419 11.8048 80.333 11.32 81.5874 11.1854C82.8417 11.0507 84.1087 11.2717 85.2434 11.8231C86.378 12.3745 87.3347 13.234 88.004 14.3034C88.6733 15.3728 89.0282 16.6089 89.0281 17.8705Z" fill="#F79E1B"/>
<path d="M88.3867 22.0367V21.8203H88.4739V21.7762H88.2517V21.8203H88.339V22.0367H88.3867ZM88.8182 22.0367V21.7758H88.7501L88.6717 21.9553L88.5933 21.7758H88.5251V22.0367H88.5733V21.8399L88.6467 22.0096H88.6966L88.7701 21.8395V22.0367H88.8182Z" fill="#F79E1B"/>
<rect x="58.1469" y="4.90395" width="40.1489" height="25.9335" rx="4.70645" stroke="#D6DCE5" stroke-width="0.1921"/>
</g>
<g filter="url(#filter2_dd_35_1051)">
<rect x="108.486" y="5" width="39.9568" height="25.7414" rx="4.6104" fill="white"/>
<path fill-rule="evenodd" clip-rule="evenodd" d="M117.227 14.1253H114.923C114.765 14.1253 114.631 14.2399 114.607 14.3955L113.675 20.3021C113.657 20.4186 113.747 20.5237 113.865 20.5237H114.965C115.122 20.5237 115.257 20.4091 115.281 20.2533L115.532 18.6602C115.557 18.5042 115.691 18.3898 115.848 18.3898H116.578C118.095 18.3898 118.971 17.6555 119.2 16.2005C119.303 15.564 119.204 15.0638 118.906 14.7134C118.579 14.3289 117.998 14.1253 117.227 14.1253ZM117.492 16.2827C117.367 17.1092 116.735 17.1092 116.124 17.1092H115.777L116.02 15.5655C116.035 15.4723 116.116 15.4036 116.21 15.4036H116.369C116.785 15.4036 117.178 15.4036 117.381 15.6407C117.502 15.7822 117.539 15.9923 117.492 16.2827ZM124.113 16.2562H123.01C122.916 16.2562 122.835 16.3249 122.82 16.4183L122.771 16.7267L122.694 16.615C122.455 16.2683 121.923 16.1525 121.391 16.1525C120.172 16.1525 119.131 17.0757 118.928 18.3708C118.823 19.0167 118.973 19.6343 119.339 20.0651C119.675 20.4612 120.156 20.6263 120.729 20.6263C121.711 20.6263 122.256 19.9947 122.256 19.9947L122.206 20.3013C122.188 20.4185 122.278 20.5235 122.396 20.5235H123.389C123.547 20.5235 123.681 20.409 123.706 20.2531L124.302 16.4778C124.321 16.3617 124.231 16.2562 124.113 16.2562ZM122.575 18.403C122.469 19.0332 121.968 19.4562 121.331 19.4562C121.01 19.4562 120.754 19.3535 120.59 19.1588C120.427 18.9655 120.365 18.6903 120.417 18.3838C120.516 17.759 121.025 17.3223 121.653 17.3223C121.966 17.3223 122.221 17.4262 122.389 17.6226C122.557 17.821 122.623 18.0978 122.575 18.403ZM128.88 16.256H129.988C130.144 16.256 130.234 16.4301 130.146 16.5574L126.459 21.8789C126.399 21.9651 126.301 22.0164 126.196 22.0164H125.088C124.933 22.0164 124.842 21.8409 124.932 21.7132L126.08 20.0929L124.859 16.5099C124.817 16.3854 124.909 16.256 125.041 16.256H126.13C126.272 16.256 126.397 16.3489 126.438 16.4843L127.086 18.6483L128.615 16.3964C128.674 16.3085 128.774 16.256 128.88 16.256Z" fill="#253B80"/>
<path fill-rule="evenodd" clip-rule="evenodd" d="M140.899 20.3015L141.845 14.2869C141.859 14.1936 141.94 14.1248 142.034 14.1245H143.099C143.216 14.1245 143.306 14.2299 143.288 14.3465L142.356 20.2527C142.331 20.4086 142.197 20.5232 142.039 20.5232H141.089C140.971 20.5232 140.881 20.4181 140.899 20.3015ZM133.659 14.1248H131.355C131.198 14.1248 131.064 14.2394 131.039 14.3949L130.107 20.3015C130.089 20.4181 130.179 20.5232 130.297 20.5232H131.479C131.589 20.5232 131.683 20.4431 131.7 20.3339L131.964 18.6597C131.989 18.5036 132.123 18.3892 132.28 18.3892H133.009C134.527 18.3892 135.402 17.655 135.631 16.2C135.735 15.5634 135.636 15.0633 135.337 14.7129C135.01 14.3284 134.43 14.1248 133.659 14.1248ZM133.925 16.2821C133.799 17.1087 133.167 17.1087 132.556 17.1087H132.209L132.453 15.565C132.468 15.4718 132.548 15.4031 132.643 15.4031H132.802C133.218 15.4031 133.61 15.4031 133.813 15.6401C133.934 15.7816 133.971 15.9918 133.925 16.2821ZM140.545 16.2556H139.442C139.347 16.2556 139.267 16.3244 139.253 16.4177L139.204 16.7262L139.126 16.6144C138.888 16.2678 138.355 16.152 137.824 16.152C136.605 16.152 135.564 17.0752 135.361 18.3702C135.256 19.0161 135.405 19.6338 135.772 20.0646C136.109 20.4607 136.589 20.6257 137.161 20.6257C138.143 20.6257 138.688 19.9942 138.688 19.9942L138.639 20.3008C138.62 20.418 138.711 20.523 138.829 20.523H139.822C139.98 20.523 140.114 20.4085 140.138 20.2526L140.735 16.4773C140.753 16.3611 140.663 16.2556 140.545 16.2556ZM139.007 18.4025C138.901 19.0326 138.4 19.4557 137.762 19.4557C137.442 19.4557 137.186 19.3529 137.021 19.1583C136.858 18.965 136.797 18.6897 136.848 18.3833C136.948 17.7585 137.456 17.3217 138.085 17.3217C138.398 17.3217 138.652 17.4257 138.82 17.6221C138.989 17.8205 139.056 18.0973 139.007 18.4025Z" fill="#179BD7"/>
<rect x="108.39" y="4.90395" width="40.1489" height="25.9335" rx="4.70645" stroke="#D6DCE5" stroke-width="0.1921"/>
</g>
<g filter="url(#filter3_dd_35_1051)">
<rect x="158.729" y="5" width="39.9568" height="25.7414" rx="4.6104" fill="white"/>
<path d="M171.653 14.4989C171.919 14.1654 172.1 13.7177 172.052 13.2603C171.662 13.2797 171.186 13.5177 170.91 13.8514C170.663 14.1371 170.444 14.6036 170.501 15.0419C170.939 15.0799 171.376 14.8229 171.653 14.4989Z" fill="#000008"/>
<path d="M172.047 15.1275C171.411 15.0896 170.87 15.4885 170.567 15.4885C170.263 15.4885 169.797 15.1466 169.294 15.1558C168.639 15.1654 168.032 15.5357 167.699 16.1246C167.016 17.3028 167.519 19.0504 168.184 20.0099C168.506 20.4847 168.895 21.0074 169.408 20.9886C169.892 20.9696 170.082 20.675 170.671 20.675C171.259 20.675 171.43 20.9886 171.943 20.9791C172.475 20.9696 172.807 20.5041 173.13 20.0289C173.5 19.4878 173.652 18.9653 173.661 18.9366C173.652 18.9271 172.636 18.5374 172.627 17.3691C172.617 16.3908 173.424 15.9255 173.462 15.8966C173.006 15.2226 172.294 15.1466 172.047 15.1275Z" fill="#000008"/>
<path d="M177.587 13.8035C178.969 13.8035 179.932 14.7566 179.932 16.1443C179.932 17.5369 178.949 18.4949 177.552 18.4949H176.021V20.9294H174.915V13.8035L177.587 13.8035ZM176.021 17.5665H177.29C178.253 17.5665 178.801 17.048 178.801 16.1492C178.801 15.2505 178.253 14.7369 177.295 14.7369H176.021V17.5665Z" fill="#000008"/>
<path d="M180.221 19.4529C180.221 18.5442 180.917 17.9862 182.152 17.9171L183.574 17.8332V17.4332C183.574 16.8554 183.184 16.5097 182.532 16.5097C181.915 16.5097 181.53 16.806 181.436 17.2702H180.428C180.488 16.3319 181.288 15.6406 182.572 15.6406C183.831 15.6406 184.636 16.3072 184.636 17.3492V20.9294H183.613V20.0751H183.589C183.288 20.6529 182.631 21.0183 181.949 21.0183C180.932 21.0183 180.221 20.3862 180.221 19.4529ZM183.574 18.9838V18.5739L182.295 18.6529C181.658 18.6974 181.298 18.9789 181.298 19.4233C181.298 19.8776 181.673 20.1739 182.246 20.1739C182.991 20.1739 183.574 19.6603 183.574 18.9838Z" fill="#000008"/>
<path d="M185.601 22.8406V21.9763C185.68 21.9961 185.857 21.9961 185.946 21.9961C186.44 21.9961 186.707 21.7887 186.87 21.2554C186.87 21.2455 186.964 20.9393 186.964 20.9344L185.087 15.7344H186.243L187.556 19.9616H187.576L188.89 15.7344H190.016L188.07 21.201C187.625 22.4603 187.112 22.8652 186.035 22.8652C185.946 22.8652 185.68 22.8553 185.601 22.8406Z" fill="#000008"/>
<rect x="158.633" y="4.90395" width="40.1489" height="25.9335" rx="4.70645" stroke="#D6DCE5" stroke-width="0.1921"/>
</g>
<g filter="url(#filter4_dd_35_1051)">
<rect x="208.972" y="5" width="39.9568" height="25.7414" rx="4.6104" fill="white"/>
<path d="M228.082 20.9559H227.183V13.9628H229.565C230.169 13.9628 230.684 14.1641 231.105 14.5667C231.536 14.9692 231.751 15.4607 231.751 16.0411C231.751 16.6356 231.536 17.127 231.105 17.5249C230.689 17.9228 230.174 18.1194 229.565 18.1194H228.082V20.9559ZM228.082 14.8241V17.2628H229.584C229.94 17.2628 230.239 17.1411 230.473 16.9024C230.712 16.6636 230.834 16.3734 230.834 16.0458C230.834 15.7228 230.712 15.4373 230.473 15.1986C230.239 14.9505 229.945 14.8288 229.584 14.8288H228.082V14.8241Z" fill="#3C4043"/>
<path d="M234.101 16.013C234.766 16.013 235.29 16.1909 235.674 16.5466C236.058 16.9024 236.249 17.3892 236.249 18.007V20.9559H235.393V20.2913H235.355C234.986 20.8389 234.489 21.1104 233.872 21.1104C233.343 21.1104 232.903 20.9559 232.547 20.6423C232.191 20.3287 232.013 19.9402 232.013 19.4721C232.013 18.976 232.201 18.5828 232.575 18.2926C232.949 17.9977 233.45 17.8526 234.073 17.8526C234.606 17.8526 235.046 17.9509 235.388 18.1475V17.9415C235.388 17.6279 235.266 17.3658 235.018 17.1458C234.77 16.9258 234.48 16.8181 234.148 16.8181C233.647 16.8181 233.249 17.0287 232.959 17.4547L232.168 16.9585C232.603 16.3266 233.249 16.013 234.101 16.013ZM232.94 19.4862C232.94 19.7202 233.038 19.9168 233.24 20.0713C233.436 20.2257 233.67 20.3053 233.937 20.3053C234.316 20.3053 234.653 20.1649 234.948 19.884C235.243 19.6032 235.393 19.2755 235.393 18.8964C235.112 18.6764 234.723 18.564 234.223 18.564C233.858 18.564 233.553 18.653 233.31 18.8262C233.062 19.0087 232.94 19.2287 232.94 19.4862Z" fill="#3C4043"/>
<path d="M241.136 16.1675L238.14 23.0576H237.214L238.328 20.647L236.352 16.1675H237.331L238.754 19.6032H238.772L240.158 16.1675H241.136Z" fill="#3C4043"/>
<path d="M224.507 17.553C224.507 17.26 224.481 16.9796 224.432 16.71H220.665V18.2546L222.834 18.2551C222.746 18.7691 222.463 19.2072 222.029 19.4993V20.5014H223.321C224.075 19.8035 224.507 18.7719 224.507 17.553Z" fill="#4285F4"/>
<path d="M222.03 19.4993C221.67 19.7418 221.207 19.8836 220.666 19.8836C219.62 19.8836 218.732 19.1787 218.414 18.2285H217.082V19.262C217.742 20.5717 219.099 21.4704 220.666 21.4704C221.749 21.4704 222.659 21.1142 223.321 20.501L222.03 19.4993Z" fill="#34A853"/>
<path d="M218.289 17.4617C218.289 17.1949 218.333 16.937 218.414 16.6945V15.661H217.082C216.809 16.2026 216.656 16.8139 216.656 17.4617C216.656 18.1095 216.81 18.7208 217.082 19.2624L218.414 18.2289C218.333 17.9864 218.289 17.7285 218.289 17.4617Z" fill="#FABB05"/>
<path d="M220.666 15.0394C221.257 15.0394 221.786 15.243 222.204 15.6409L223.349 14.4974C222.654 13.85 221.748 13.4526 220.666 13.4526C219.099 13.4526 217.742 14.3513 217.082 15.661L218.414 16.6945C218.732 15.7443 219.62 15.0394 220.666 15.0394Z" fill="#E94235"/>
<rect x="208.876" y="4.90395" width="40.1489" height="25.9335" rx="4.70645" stroke="#D6DCE5" stroke-width="0.1921"/>
</g>
<defs>
<filter id="filter0_dd_35_1051" x="0.123861" y="0.966105" width="55.7091" height="41.4935" filterUnits="userSpaceOnUse" color-interpolation-filters="sRGB">
<feFlood flood-opacity="0" result="BackgroundImageFix"/>
<feColorMatrix in="SourceAlpha" type="matrix" values="0 0 0 0 0 0 0 0 0 0 0 0 0 0 0 0 0 0 127 0" result="hardAlpha"/>
<feOffset dy="0.3842"/>
<feGaussianBlur stdDeviation="1.921"/>
<feColorMatrix type="matrix" values="0 0 0 0 0.717647 0 0 0 0 0.717647 0 0 0 0 0.717647 0 0 0 0.08 0"/>
<feBlend mode="normal" in2="BackgroundImageFix" result="effect1_dropShadow_35_1051"/>
<feColorMatrix in="SourceAlpha" type="matrix" values="0 0 0 0 0 0 0 0 0 0 0 0 0 0 0 0 0 0 127 0" result="hardAlpha"/>
<feOffset dy="3.842"/>
<feGaussianBlur stdDeviation="3.842"/>
<feColorMatrix type="matrix" values="0 0 0 0 0.717647 0 0 0 0 0.717647 0 0 0 0 0.717647 0 0 0 0.08 0"/>
<feBlend mode="normal" in2="effect1_dropShadow_35_1051" result="effect2_dropShadow_35_1051"/>
<feBlend mode="normal" in="SourceGraphic" in2="effect2_dropShadow_35_1051" result="shape"/>
</filter>
<filter id="filter1_dd_35_1051" x="50.3668" y="0.966105" width="55.7091" height="41.4935" filterUnits="userSpaceOnUse" color-interpolation-filters="sRGB">
<feFlood flood-opacity="0" result="BackgroundImageFix"/>
<feColorMatrix in="SourceAlpha" type="matrix" values="0 0 0 0 0 0 0 0 0 0 0 0 0 0 0 0 0 0 127 0" result="hardAlpha"/>
<feOffset dy="0.3842"/>
<feGaussianBlur stdDeviation="1.921"/>
<feColorMatrix type="matrix" values="0 0 0 0 0.717647 0 0 0 0 0.717647 0 0 0 0 0.717647 0 0 0 0.08 0"/>
<feBlend mode="normal" in2="BackgroundImageFix" result="effect1_dropShadow_35_1051"/>
<feColorMatrix in="SourceAlpha" type="matrix" values="0 0 0 0 0 0 0 0 0 0 0 0 0 0 0 0 0 0 127 0" result="hardAlpha"/>
<feOffset dy="3.842"/>
<feGaussianBlur stdDeviation="3.842"/>
<feColorMatrix type="matrix" values="0 0 0 0 0.717647 0 0 0 0 0.717647 0 0 0 0 0.717647 0 0 0 0.08 0"/>
<feBlend mode="normal" in2="effect1_dropShadow_35_1051" result="effect2_dropShadow_35_1051"/>
<feBlend mode="normal" in="SourceGraphic" in2="effect2_dropShadow_35_1051" result="shape"/>
</filter>
<filter id="filter2_dd_35_1051" x="100.61" y="0.966105" width="55.7091" height="41.4935" filterUnits="userSpaceOnUse" color-interpolation-filters="sRGB">
<feFlood flood-opacity="0" result="BackgroundImageFix"/>
<feColorMatrix in="SourceAlpha" type="matrix" values="0 0 0 0 0 0 0 0 0 0 0 0 0 0 0 0 0 0 127 0" result="hardAlpha"/>
<feOffset dy="0.3842"/>
<feGaussianBlur stdDeviation="1.921"/>
<feColorMatrix type="matrix" values="0 0 0 0 0.717647 0 0 0 0 0.717647 0 0 0 0 0.717647 0 0 0 0.08 0"/>
<feBlend mode="normal" in2="BackgroundImageFix" result="effect1_dropShadow_35_1051"/>
<feColorMatrix in="SourceAlpha" type="matrix" values="0 0 0 0 0 0 0 0 0 0 0 0 0 0 0 0 0 0 127 0" result="hardAlpha"/>
<feOffset dy="3.842"/>
<feGaussianBlur stdDeviation="3.842"/>
<feColorMatrix type="matrix" values="0 0 0 0 0.717647 0 0 0 0 0.717647 0 0 0 0 0.717647 0 0 0 0.08 0"/>
<feBlend mode="normal" in2="effect1_dropShadow_35_1051" result="effect2_dropShadow_35_1051"/>
<feBlend mode="normal" in="SourceGraphic" in2="effect2_dropShadow_35_1051" result="shape"/>
</filter>
<filter id="filter3_dd_35_1051" x="150.853" y="0.966105" width="55.7091" height="41.4935" filterUnits="userSpaceOnUse" color-interpolation-filters="sRGB">
<feFlood flood-opacity="0" result="BackgroundImageFix"/>
<feColorMatrix in="SourceAlpha" type="matrix" values="0 0 0 0 0 0 0 0 0 0 0 0 0 0 0 0 0 0 127 0" result="hardAlpha"/>
<feOffset dy="0.3842"/>
<feGaussianBlur stdDeviation="1.921"/>
<feColorMatrix type="matrix" values="0 0 0 0 0.717647 0 0 0 0 0.717647 0 0 0 0 0.717647 0 0 0 0.08 0"/>
<feBlend mode="normal" in2="BackgroundImageFix" result="effect1_dropShadow_35_1051"/>
<feColorMatrix in="SourceAlpha" type="matrix" values="0 0 0 0 0 0 0 0 0 0 0 0 0 0 0 0 0 0 127 0" result="hardAlpha"/>
<feOffset dy="3.842"/>
<feGaussianBlur stdDeviation="3.842"/>
<feColorMatrix type="matrix" values="0 0 0 0 0.717647 0 0 0 0 0.717647 0 0 0 0 0.717647 0 0 0 0.08 0"/>
<feBlend mode="normal" in2="effect1_dropShadow_35_1051" result="effect2_dropShadow_35_1051"/>
<feBlend mode="normal" in="SourceGraphic" in2="effect2_dropShadow_35_1051" result="shape"/>
</filter>
<filter id="filter4_dd_35_1051" x="201.096" y="0.966105" width="55.7091" height="41.4935" filterUnits="userSpaceOnUse" color-interpolation-filters="sRGB">
<feFlood flood-opacity="0" result="BackgroundImageFix"/>
<feColorMatrix in="SourceAlpha" type="matrix" values="0 0 0 0 0 0 0 0 0 0 0 0 0 0 0 0 0 0 127 0" result="hardAlpha"/>
<feOffset dy="0.3842"/>
<feGaussianBlur stdDeviation="1.921"/>
<feColorMatrix type="matrix" values="0 0 0 0 0.717647 0 0 0 0 0.717647 0 0 0 0 0.717647 0 0 0 0.08 0"/>
<feBlend mode="normal" in2="BackgroundImageFix" result="effect1_dropShadow_35_1051"/>
<feColorMatrix in="SourceAlpha" type="matrix" values="0 0 0 0 0 0 0 0 0 0 0 0 0 0 0 0 0 0 127 0" result="hardAlpha"/>
<feOffset dy="3.842"/>
<feGaussianBlur stdDeviation="3.842"/>
<feColorMatrix type="matrix" values="0 0 0 0 0.717647 0 0 0 0 0.717647 0 0 0 0 0.717647 0 0 0 0.08 0"/>
<feBlend mode="normal" in2="effect1_dropShadow_35_1051" result="effect2_dropShadow_35_1051"/>
<feBlend mode="normal" in="SourceGraphic" in2="effect2_dropShadow_35_1051" result="shape"/>
</filter>
</defs>
</svg>
